<svg width="60" height="60" viewBox="0 0 60 60" fill="none" xmlns="http://www.w3.org/2000/svg">
<path d="M30 6.09375C25.2718 6.09375 20.6498 7.49583 16.7184 10.1227C12.787 12.7495 9.72292 16.4832 7.91352 20.8515C6.10411 25.2198 5.63068 30.0265 6.55311 34.6639C7.47554 39.3012 9.75239 43.5609 13.0957 46.9043C16.4391 50.2476 20.6988 52.5245 25.3361 53.4469C29.9735 54.3693 34.7802 53.8959 39.1485 52.0865C43.5168 50.2771 47.2505 47.213 49.8773 43.2816C52.5042 39.3502 53.9063 34.7282 53.9063 30C53.8988 23.662 51.3777 17.5856 46.8961 13.104C42.4144 8.62227 36.3381 6.10119 30 6.09375ZM30 51.0938C25.8281 51.0938 21.7498 49.8566 18.281 47.5388C14.8121 45.221 12.1085 41.9266 10.5119 38.0722C8.91539 34.2178 8.49766 29.9766 9.31157 25.8848C10.1255 21.793 12.1345 18.0345 15.0845 15.0845C18.0345 12.1345 21.793 10.1255 25.8848 9.31156C29.9766 8.49765 34.2179 8.91538 38.0722 10.5119C41.9266 12.1085 45.221 14.8121 47.5388 18.2809C49.8566 21.7498 51.0938 25.8281 51.0938 30C51.0876 35.5925 48.8632 40.9542 44.9087 44.9087C40.9542 48.8632 35.5925 51.0875 30 51.0938ZM40.3688 29.0063C40.6321 29.2699 40.78 29.6273 40.78 30C40.78 30.3727 40.6321 30.7301 40.3688 30.9938L32.8688 38.4938C32.6022 38.7422 32.2496 38.8774 31.8853 38.871C31.521 38.8645 31.1734 38.7169 30.9157 38.4593C30.6581 38.2016 30.5105 37.854 30.5041 37.4897C30.4976 37.1254 30.6329 36.7728 30.8813 36.5062L35.9789 31.4062H20.625C20.2521 31.4062 19.8944 31.2581 19.6306 30.9944C19.3669 30.7306 19.2188 30.373 19.2188 30C19.2188 29.627 19.3669 29.2694 19.6306 29.0056C19.8944 28.7419 20.2521 28.5938 20.625 28.5938H35.9789L30.8813 23.4937C30.6329 23.2272 30.4976 22.8746 30.5041 22.5103C30.5105 22.146 30.6581 21.7984 30.9157 21.5407C31.1734 21.2831 31.521 21.1355 31.8853 21.129C32.2496 21.1226 32.6022 21.2579 32.8688 21.5063L40.3688 29.0063Z" fill="black"/>
</svg>
