<svg width="45" height="45" viewBox="0 0 45 45" fill="none" xmlns="http://www.w3.org/2000/svg">
<path d="M22.5 4.57031C18.9539 4.57031 15.4873 5.62187 12.5388 7.59201C9.59028 9.56215 7.29219 12.3624 5.93514 15.6386C4.57808 18.9148 4.22301 22.5199 4.91483 25.9979C5.60666 29.4759 7.31429 32.6707 9.8218 35.1782C12.3293 37.6857 15.5241 39.3934 19.0021 40.0852C22.4801 40.777 26.0852 40.4219 29.3614 39.0649C32.6376 37.7078 35.4379 35.4097 37.408 32.4612C39.3781 29.5127 40.4297 26.0462 40.4297 22.5C40.4241 17.7465 38.5333 13.1892 35.172 9.82796C31.8108 6.4667 27.2535 4.5759 22.5 4.57031ZM22.5 38.3203C19.371 38.3203 16.3124 37.3925 13.7107 35.6541C11.1091 33.9158 9.08135 31.445 7.88394 28.5542C6.68654 25.6634 6.37325 22.4825 6.98368 19.4136C7.59411 16.3448 9.10085 13.5259 11.3134 11.3133C13.5259 9.10084 16.3448 7.5941 19.4136 6.98367C22.4825 6.37324 25.6634 6.68654 28.5542 7.88394C31.445 9.08134 33.9158 11.1091 35.6541 13.7107C37.3925 16.3123 38.3203 19.371 38.3203 22.5C38.3157 26.6944 36.6474 30.7156 33.6815 33.6815C30.7156 36.6474 26.6944 38.3157 22.5 38.3203ZM30.2766 21.7547C30.4741 21.9524 30.585 22.2205 30.585 22.5C30.585 22.7795 30.4741 23.0476 30.2766 23.2453L24.6516 28.8703C24.4516 29.0566 24.1872 29.158 23.914 29.1532C23.6407 29.1484 23.38 29.0377 23.1868 28.8445C22.9936 28.6512 22.8829 28.3905 22.878 28.1173C22.8732 27.8441 22.9746 27.5796 23.1609 27.3797L26.9842 23.5547H15.4688C15.189 23.5547 14.9208 23.4436 14.723 23.2458C14.5252 23.048 14.4141 22.7797 14.4141 22.5C14.4141 22.2203 14.5252 21.952 14.723 21.7542C14.9208 21.5564 15.189 21.4453 15.4688 21.4453H26.9842L23.1609 17.6203C22.9746 17.4204 22.8732 17.1559 22.878 16.8827C22.8829 16.6095 22.9936 16.3488 23.1868 16.1555C23.38 15.9623 23.6407 15.8516 23.914 15.8468C24.1872 15.842 24.4516 15.9434 24.6516 16.1297L30.2766 21.7547Z" fill="white"/>
</svg>
