<svg width="60" height="60" viewBox="0 0 60 60" fill="none" xmlns="http://www.w3.org/2000/svg">
<path d="M30 6.09375C25.2718 6.09375 20.6498 7.49583 16.7184 10.1227C12.787 12.7495 9.72292 16.4832 7.91352 20.8515C6.10411 25.2198 5.63068 30.0265 6.55311 34.6639C7.47554 39.3012 9.75239 43.5609 13.0957 46.9043C16.4391 50.2476 20.6988 52.5245 25.3361 53.4469C29.9735 54.3693 34.7802 53.8959 39.1485 52.0865C43.5168 50.2771 47.2505 47.213 49.8773 43.2816C52.5042 39.3502 53.9063 34.7282 53.9063 30C53.8988 23.662 51.3777 17.5856 46.8961 13.104C42.4144 8.62227 36.3381 6.10119 30 6.09375ZM30 51.0938C25.8281 51.0938 21.7498 49.8566 18.281 47.5388C14.8121 45.221 12.1085 41.9266 10.5119 38.0722C8.91539 34.2178 8.49766 29.9766 9.31157 25.8848C10.1255 21.793 12.1345 18.0345 15.0845 15.0845C18.0345 12.1345 21.793 10.1255 25.8848 9.31156C29.9766 8.49765 34.2179 8.91538 38.0722 10.5119C41.9266 12.1085 45.221 14.8121 47.5388 18.2809C49.8566 21.7498 51.0938 25.8281 51.0938 30C51.0876 35.5925 48.8632 40.9542 44.9087 44.9087C40.9542 48.8632 35.5925 51.0875 30 51.0938ZM40.7813 30C40.7813 30.373 40.6331 30.7306 40.3694 30.9944C40.1057 31.2581 39.748 31.4062 39.375 31.4062H24.0211L29.1188 36.5062C29.2569 36.635 29.3677 36.7902 29.4446 36.9627C29.5215 37.1352 29.5628 37.3215 29.5661 37.5103C29.5695 37.6991 29.5347 37.8866 29.464 38.0617C29.3933 38.2368 29.288 38.3959 29.1545 38.5294C29.0209 38.663 28.8619 38.7683 28.6868 38.839C28.5117 38.9097 28.3241 38.9444 28.1353 38.9411C27.9465 38.9378 27.7603 38.8965 27.5878 38.8196C27.4153 38.7427 27.26 38.6319 27.1313 38.4938L19.6313 30.9938C19.3679 30.7301 19.22 30.3727 19.22 30C19.22 29.6273 19.3679 29.2699 19.6313 29.0063L27.1313 21.5063C27.3978 21.2579 27.7504 21.1226 28.1147 21.129C28.4791 21.1355 28.8267 21.2831 29.0843 21.5407C29.3419 21.7984 29.4895 22.146 29.496 22.5103C29.5024 22.8746 29.3672 23.2272 29.1188 23.4937L24.0211 28.5938H39.375C39.748 28.5938 40.1057 28.7419 40.3694 29.0056C40.6331 29.2694 40.7813 29.627 40.7813 30Z" fill="black"/>
</svg>
