<svg width="36" height="36" viewBox="0 0 36 36" fill="none" xmlns="http://www.w3.org/2000/svg">
<path d="M21.8495 15.1698C21.8495 15.4496 21.7384 15.7178 21.5406 15.9156C21.3428 16.1134 21.0746 16.2245 20.7948 16.2245H16.2245V20.7948C16.2245 21.0746 16.1134 21.3428 15.9156 21.5406C15.7178 21.7384 15.4496 21.8495 15.1698 21.8495C14.8901 21.8495 14.6219 21.7384 14.4241 21.5406C14.2263 21.3428 14.1152 21.0746 14.1152 20.7948V16.2245H9.54484C9.26512 16.2245 8.99685 16.1134 8.79906 15.9156C8.60127 15.7178 8.49015 15.4496 8.49015 15.1698C8.49015 14.8901 8.60127 14.6219 8.79906 14.4241C8.99685 14.2263 9.26512 14.1152 9.54484 14.1152H14.1152V9.54484C14.1152 9.26512 14.2263 8.99685 14.4241 8.79906C14.6219 8.60127 14.8901 8.49015 15.1698 8.49015C15.4496 8.49015 15.7178 8.60127 15.9156 8.79906C16.1134 8.99685 16.2245 9.26512 16.2245 9.54484V14.1152H20.7948C21.0746 14.1152 21.3428 14.2263 21.5406 14.4241C21.7384 14.6219 21.8495 14.8901 21.8495 15.1698ZM35.6027 35.6027C35.4049 35.8002 35.1368 35.9111 34.8573 35.9111C34.5778 35.9111 34.3098 35.8002 34.112 35.6027L25.0804 26.571C22.1185 29.1465 18.2724 30.4714 14.3528 30.2665C10.4331 30.0615 6.74613 28.3427 4.06906 25.4723C1.39198 22.6019 -0.0660507 18.8043 0.00229892 14.8798C0.0706485 10.9554 1.66004 7.21085 4.43545 4.43545C7.21085 1.66004 10.9554 0.0706485 14.8798 0.00229892C18.8043 -0.0660507 22.6019 1.39198 25.4723 4.06906C28.3427 6.74613 30.0615 10.4331 30.2665 14.3528C30.4714 18.2724 29.1465 22.1185 26.571 25.0804L35.6027 34.112C35.8002 34.3098 35.9111 34.5778 35.9111 34.8573C35.9111 35.1368 35.8002 35.4049 35.6027 35.6027ZM15.1698 28.1777C17.7425 28.1777 20.2575 27.4148 22.3966 25.9854C24.5357 24.5561 26.203 22.5246 27.1875 20.1477C28.172 17.7708 28.4296 15.1554 27.9277 12.6321C27.4258 10.1089 26.1869 7.7911 24.3678 5.97193C22.5486 4.15275 20.2308 2.91388 17.7075 2.41197C15.1843 1.91006 12.5688 2.16766 10.192 3.15219C7.8151 4.13672 5.78356 5.80396 4.35424 7.94309C2.92492 10.0822 2.16203 12.5971 2.16203 15.1698C2.16621 18.6184 3.53802 21.9246 5.97655 24.3631C8.41508 26.8017 11.7212 28.1735 15.1698 28.1777Z" fill="black"/>
</svg>
